<svg xmlns="http://www.w3.org/2000/svg" viewBox="0 0 921.39 345.49"><defs><style>.cls-1{fill:#fff;}</style></defs><title>ai-di-logoAsset 1</title><g id="Layer_2" data-name="Layer 2"><g id="Layer_1-2" data-name="Layer 1"><path class="cls-1" d="M718.52,317.7c-11.26,11.57-23.64,20.24-38.92,24.38-39.29,10.64-82.18-4.14-107.37-36.95-33.74-43.92-30.71-110.73,6.83-151,30.48-32.73,85.46-41.3,121.48-18.93a93.91,93.91,0,0,1,18,14.56v-6.29c0-46,.07-92-.11-138C718.39,1,719.59,0,723.94,0q32.25.36,64.49,0c4.08,0,4.9,1.25,4.89,5.06q-.14,164.46,0,328.94c0,3.84-.88,5.1-4.94,5.06q-32.49-.31-65,0c-4,0-5.19-1.14-5-5.05C718.76,328.6,718.52,323.14,718.52,317.7ZM673,281.25c26.11,1,48-20.9,48.09-47a47.36,47.36,0,0,0-47.74-47.48c-26.26.16-47.22,20.89-47.26,46.72C626,260.72,646.13,281.21,673,281.25Z"/><path class="cls-1" d="M169.52,149.43c0-6.39.1-11.55,0-16.71-.07-2.53.71-3.53,3.39-3.52q34,.12,68,0c2.65,0,3.66.93,3.39,3.5a29.81,29.81,0,0,0,0,3v197c0,6.3,0,6.3-6.53,6.3-21.17,0-42.33-.08-63.49.09-3.69,0-5-.88-4.79-4.71.32-5.48.08-11,.08-16.51-2.13-.41-2.65,1.39-3.53,2.35-15.57,16.94-35.11,24.43-57.83,25.11C51.86,347,8.55,305.88,1.32,252.09c-4.23-31.42,1.49-60.67,20.06-86.78,29.67-41.73,81.86-51.31,120.4-35.24C152,134.35,160.69,141,169.52,149.43ZM77,234c-.18,25.16,19.94,48.47,49.55,47.39,24.38-.9,45.7-22.41,45.65-47.22a47.79,47.79,0,0,0-48-47.38C97.39,187,76.75,207.67,77,234Z"/><path class="cls-1" d="M842.72,233.82c0-33.15.08-66.3-.09-99.44,0-4.2,1.21-5.27,5.3-5.23q32.22.3,64.46,0c4.05,0,5,1.22,4.94,5.07q-.17,99.95,0,199.88c0,4-1.13,5-5,5q-32.47-.27-65,0c-3.83,0-4.72-1.14-4.71-4.81C842.77,300.78,842.72,267.3,842.72,233.82Z"/><path class="cls-1" d="M294.24,233.85c0-33.14.07-66.29-.09-99.44,0-4.12,1.08-5.3,5.25-5.26q32,.32,64,0c4,0,5,1.12,5,5q-.18,99.95,0,199.88c0,3.93-1,5-5,5q-32.22-.3-64.46,0c-3.78,0-4.74-1.05-4.72-4.77C294.3,300.81,294.24,267.33,294.24,233.85Z"/><path class="cls-1" d="M838.24,48.87A41.58,41.58,0,1,1,879.79,91,41.71,41.71,0,0,1,838.24,48.87Z"/><path class="cls-1" d="M372.52,49.49A41.64,41.64,0,1,1,331,7.25,41.84,41.84,0,0,1,372.52,49.49Z"/><path class="cls-1" d="M468.07,264.25a38.07,38.07,0,0,1,.07-76.14,38.07,38.07,0,1,1-.07,76.14Z"/></g></g></svg>